<svg width="11" height="17" viewBox="0 0 11 17" fill="none" xmlns="http://www.w3.org/2000/svg">
<path d="M1.94587 16.8996C2.33192 16.8996 2.64868 16.7689 2.90605 16.5261L10.4983 9.53162C10.8349 9.21411 11.0032 8.88727 11.0032 8.48572C11.0032 8.08417 10.8448 7.74799 10.4983 7.43982L2.90605 0.436035C2.63878 0.193237 2.32202 0.0625 1.94587 0.0625C1.18368 0.0625 0.560059 0.641479 0.560059 1.36053C0.560059 1.71539 0.718437 2.05157 0.995601 2.31305L7.7267 8.48572L0.995601 14.649C0.718437 14.9105 0.560059 15.2467 0.560059 15.6016C0.560059 16.3206 1.18368 16.8996 1.94587 16.8996Z" fill="white"/>
</svg>
