<svg width="32" height="32" viewBox="0 0 32 32" fill="none" xmlns="http://www.w3.org/2000/svg">
    <g clip-path="url(#clip0_5_196)">
        <path d="M30.75 2.55003H24.5944V1.26984C24.5944 0.568508 24.0348 0 23.3444 0C22.6541 0 22.0944 0.568508 22.0944 1.26984V2.55003H9.90556V1.26984C9.90556 0.568508 9.34594 0 8.65556 0C7.96519 0 7.40556 0.568508 7.40556 1.26984V2.55003H1.25C0.559625 2.55003 0 3.1186 0 3.81987V30.7302C0 31.4314 0.559625 32 1.25 32H30.75C31.4404 32 32 31.4314 32 30.7302V3.81987C32 3.1186 31.4404 2.55003 30.75 2.55003ZM29.5 29.4603H2.5V5.08971H7.40556V6.36997C7.40556 7.0713 7.96519 7.63981 8.65556 7.63981C9.34594 7.63981 9.90556 7.0713 9.90556 6.36997V5.08971H22.0944V6.36997C22.0944 7.0713 22.654 7.63981 23.3444 7.63981C24.0347 7.63981 24.5944 7.0713 24.5944 6.36997V5.08971H29.5V29.4603Z" fill="#8EA0AB"/>
        <path d="M16 16.3719C16.932 16.3719 17.6875 15.6164 17.6875 14.6844C17.6875 13.7524 16.932 12.9969 16 12.9969C15.068 12.9969 14.3125 13.7524 14.3125 14.6844C14.3125 15.6164 15.068 16.3719 16 16.3719Z" fill="#8EA0AB"/>
        <path d="M16 23.7162C16.932 23.7162 17.6875 22.9607 17.6875 22.0287C17.6875 21.0968 16.932 20.3412 16 20.3412C15.068 20.3412 14.3125 21.0968 14.3125 22.0287C14.3125 22.9607 15.068 23.7162 16 23.7162Z" fill="#8EA0AB"/>
        <path d="M8.65564 16.3719C9.58763 16.3719 10.3431 15.6164 10.3431 14.6844C10.3431 13.7524 9.58763 12.9969 8.65564 12.9969C7.72366 12.9969 6.96814 13.7524 6.96814 14.6844C6.96814 15.6164 7.72366 16.3719 8.65564 16.3719Z" fill="#8EA0AB"/>
        <path d="M23.3444 16.3719C24.2763 16.3719 25.0319 15.6164 25.0319 14.6844C25.0319 13.7524 24.2763 12.9969 23.3444 12.9969C22.4124 12.9969 21.6569 13.7524 21.6569 14.6844C21.6569 15.6164 22.4124 16.3719 23.3444 16.3719Z" fill="#8EA0AB"/>
        <path d="M8.65564 23.7162C9.58763 23.7162 10.3431 22.9607 10.3431 22.0287C10.3431 21.0968 9.58763 20.3412 8.65564 20.3412C7.72366 20.3412 6.96814 21.0968 6.96814 22.0287C6.96814 22.9607 7.72366 23.7162 8.65564 23.7162Z" fill="#8EA0AB"/>
        <path d="M23.3444 23.7162C24.2763 23.7162 25.0319 22.9607 25.0319 22.0287C25.0319 21.0968 24.2763 20.3412 23.3444 20.3412C22.4124 20.3412 21.6569 21.0968 21.6569 22.0287C21.6569 22.9607 22.4124 23.7162 23.3444 23.7162Z" fill="#8EA0AB"/>
    </g>
    <defs>
        <clipPath id="clip0_5_196">
            <rect width="32" height="32" fill="white"/>
        </clipPath>
    </defs>
</svg>
