<svg width="127" height="98" viewBox="0 0 127 98" fill="none" xmlns="http://www.w3.org/2000/svg">
<circle cx="63.8298" cy="45.8298" r="37.8298" fill="#2C1954" fill-opacity="0.5"/>
<path d="M58.0957 36.3881C58.3286 36.3879 58.5686 36.3879 58.8163 36.3879H68.1836C68.4314 36.3879 68.6714 36.3879 68.9043 36.3881M58.0957 36.3881C54.5349 36.3908 52.6684 36.4353 51.2216 37.1601C49.8658 37.8393 48.7634 38.9231 48.0726 40.2561C47.2872 41.7716 47.2872 43.7554 47.2872 47.7232V49.8485C47.2872 53.8163 47.2872 55.8002 48.0726 57.3156C48.7634 58.6486 49.8658 59.7325 51.2216 60.4117C52.763 61.1839 54.7808 61.1839 58.8163 61.1839H68.1836C72.2192 61.1839 74.2371 61.1839 75.7784 60.4117C77.1342 59.7325 78.2365 58.6486 78.9274 57.3156C79.7128 55.8002 79.7128 53.8163 79.7128 49.8485V47.7232C79.7128 43.7554 79.7128 41.7716 78.9274 40.2561C78.2365 38.9231 77.1342 37.8393 75.7784 37.1601C74.3316 36.4353 72.4651 36.3908 68.9043 36.3881M58.0957 36.3881V34.6167C58.0957 32.6604 59.7088 31.0745 61.6985 31.0745H65.3015C67.2912 31.0745 68.9043 32.6604 68.9043 34.6167V36.3881M68.9043 48.7859C68.9043 51.7205 66.4847 54.0993 63.5 54.0993C60.5153 54.0993 58.0957 51.7205 58.0957 48.7859C58.0957 45.8514 60.5153 43.4724 63.5 43.4724C66.4847 43.4724 68.9043 45.8514 68.9043 48.7859Z" stroke="white" stroke-width="3.37766" stroke-linecap="round"/>
</svg>
