<svg width="28" height="26" viewBox="0 0 28 26" fill="none" xmlns="http://www.w3.org/2000/svg">
    <g clip-path="url(#clip0_16_307)">
        <path d="M9.78378 5.7563C9.9561 5.75617 10.1338 5.75617 10.3171 5.75617H17.2504C17.4338 5.75617 17.6115 5.75617 17.7838 5.7563M9.78378 5.7563C7.14818 5.75832 5.76668 5.79124 4.69583 6.32769C3.6923 6.83043 2.87641 7.63261 2.36508 8.61926C1.78378 9.74096 1.78378 11.2093 1.78378 14.1461V15.7192C1.78378 18.6559 1.78378 20.1243 2.36508 21.246C2.87641 22.2326 3.6923 23.0348 4.69583 23.5376C5.83669 24.1091 7.33017 24.1091 10.3171 24.1091H17.2504C20.2374 24.1091 21.7309 24.1091 22.8717 23.5376C23.8752 23.0348 24.6911 22.2326 25.2025 21.246C25.7838 20.1243 25.7838 18.6559 25.7838 15.7192V14.1461C25.7838 11.2093 25.7838 9.74096 25.2025 8.61926C24.6911 7.63261 23.8752 6.83043 22.8717 6.32769C21.8009 5.79124 20.4194 5.75832 17.7838 5.7563M9.78378 5.7563V4.44524C9.78378 2.99723 10.9777 1.82339 12.4504 1.82339H15.1171C16.5899 1.82339 17.7838 2.99723 17.7838 4.44524V5.7563M17.7838 14.9326C17.7838 17.1047 15.9929 18.8654 13.7838 18.8654C11.5747 18.8654 9.78378 17.1047 9.78378 14.9326C9.78378 12.7606 11.5747 10.9998 13.7838 10.9998C15.9929 10.9998 17.7838 12.7606 17.7838 14.9326Z" stroke="#909090" stroke-width="2.5" stroke-linecap="round"/>
    </g>
    <defs>
        <clipPath id="clip0_16_307">
            <rect width="28" height="26" fill="white"/>
        </clipPath>
    </defs>
</svg>
