<svg width="32" height="32" viewBox="0 0 32 32" fill="none" xmlns="http://www.w3.org/2000/svg">
    <path d="M29 4H22.6667V1.33331C22.6667 0.597313 22.0707 0 21.3333 0H10.6667C9.92937 0 9.33337 0.597313 9.33337 1.33331V4H3C2.26269 4 1.66669 4.59731 1.66669 5.33331V30.6666C1.66669 31.4027 2.26269 32 3 32H29C29.7373 32 30.3333 31.4027 30.3333 30.6667V5.33331C30.3333 4.59731 29.7373 4 29 4ZM12 2.66669H20V6.66669H12V2.66669ZM27.6667 29.3333H4.33331V6.66669H9.33331V8C9.33331 8.736 9.92931 9.33331 10.6666 9.33331H21.3333C22.0706 9.33331 22.6666 8.736 22.6666 8V6.66669H27.6666L27.6667 29.3333Z" fill="#8EA0AB"/>
    <path d="M17.3333 17.3333V13.3333H14.6667V17.3333H10.6667V20H14.6667V24H17.3333V20H21.3333V17.3333H17.3333Z" fill="#8EA0AB"/>
</svg>
