<svg width="24" height="24" viewBox="0 0 24 24" fill="none" xmlns="http://www.w3.org/2000/svg">
<path d="M3.73005 22.455L3.27606 23.346L3.73005 22.455ZM1.54497 20.2699L2.43598 19.8159H2.43598L1.54497 20.2699ZM22.455 20.2699L21.564 19.8159V19.816L22.455 20.2699ZM20.27 22.455L19.816 21.564L20.27 22.455ZM20.27 1.54495L19.816 2.43596L20.27 1.54495ZM22.455 3.73003L23.346 3.27604L22.455 3.73003ZM3.73005 1.54495L4.18404 2.43596V2.43596L3.73005 1.54495ZM1.54497 3.73003L2.43598 4.18403L1.54497 3.73003ZM8.00357 2.00109C8.55585 1.99913 9.00197 1.54982 9 0.997539C8.99803 0.445258 8.54873 -0.00086081 7.99645 0.00110495L8.00357 2.00109ZM16.0036 0.00110495C15.4513 -0.00086081 15.002 0.445258 15 0.997539C14.998 1.54982 15.4442 1.99913 15.9964 2.00109L16.0036 0.00110495ZM2.00085 15.9158C1.99923 15.3635 1.5502 14.9171 0.997916 14.9187C0.445634 14.9203 -0.000764012 15.3693 0.000858784 15.9216L2.00085 15.9158ZM23.9992 15.9216C24.0008 15.3693 23.5544 14.9203 23.0021 14.9187C22.4498 14.9171 22.0008 15.3635 21.9992 15.9158L23.9992 15.9216ZM21.9989 8.00355C22.0009 8.55583 22.4502 9.00195 23.0025 8.99998C23.5547 8.99802 24.0009 8.54871 23.9989 7.99643L21.9989 8.00355ZM7.99645 23.9989C8.54873 24.0008 8.99803 23.5547 9 23.0024C9.00197 22.4502 8.55585 22.0008 8.00357 21.9989L7.99645 23.9989ZM15.9966 21.9989C15.4443 22.0008 14.9982 22.4502 15.0001 23.0024C15.0021 23.5547 15.4514 24.0008 16.0037 23.9989L15.9966 21.9989ZM0.00112444 7.99643C-0.000841379 8.54871 0.445277 8.99801 0.997559 8.99998C1.54984 9.00195 1.99915 8.55583 2.00111 8.00355L0.00112444 7.99643ZM13 7.99999C13 7.4477 12.5523 6.99999 12 6.99999C11.4477 6.99999 11 7.4477 11 7.99999H13ZM10 13C9.44772 13 9.00001 13.4477 9.00001 14C9.00001 14.5523 9.44772 15 10 15V13ZM8.00001 6.99999C8.00001 6.4477 7.55229 5.99999 7.00001 5.99999C6.44772 5.99999 6.00001 6.4477 6.00001 6.99999H8.00001ZM6.00001 8.99999C6.00001 9.55227 6.44772 9.99999 7.00001 9.99999C7.55229 9.99999 8.00001 9.55227 8.00001 8.99999H6.00001ZM18 6.99999C18 6.4477 17.5523 5.99999 17 5.99999C16.4477 5.99999 16 6.4477 16 6.99999H18ZM16 8.99999C16 9.55227 16.4477 9.99999 17 9.99999C17.5523 9.99999 18 9.55227 18 8.99999H16ZM7.70852 16.2943C7.31878 15.903 6.68562 15.9017 6.29431 16.2915C5.90301 16.6812 5.90175 17.3144 6.29149 17.7057L7.70852 16.2943ZM17.7085 17.7057C18.0983 17.3144 18.097 16.6812 17.7057 16.2915C17.3144 15.9017 16.6812 15.903 16.2915 16.2943L17.7085 17.7057ZM4.18404 21.564C3.4314 21.1805 2.81947 20.5686 2.43598 19.8159L0.653967 20.7239C1.22921 21.8529 2.14709 22.7708 3.27606 23.346L4.18404 21.564ZM21.564 19.816C21.1805 20.5686 20.5686 21.1805 19.816 21.564L20.7239 23.346C21.8529 22.7708 22.7708 21.8529 23.346 20.7239L21.564 19.816ZM19.816 2.43596C20.5686 2.81945 21.1805 3.43138 21.564 4.18402L23.346 3.27604C22.7708 2.14707 21.8529 1.22919 20.7239 0.653948L19.816 2.43596ZM3.27606 0.653948C2.14709 1.22919 1.22921 2.14707 0.653967 3.27604L2.43598 4.18403C2.81947 3.43138 3.4314 2.81945 4.18404 2.43596L3.27606 0.653948ZM7.99645 0.00110495C5.90994 0.00853187 4.46297 0.0491886 3.27606 0.653948L4.18404 2.43596C4.86498 2.08901 5.78994 2.00897 8.00357 2.00109L7.99645 0.00110495ZM15.9964 2.00109C18.2101 2.00897 19.135 2.08901 19.816 2.43596L20.7239 0.653948C19.537 0.0491887 18.0901 0.00853187 16.0036 0.00110495L15.9964 2.00109ZM0.000858784 15.9216C0.00712734 18.0549 0.0424346 19.5237 0.653968 20.7239L2.43598 19.8159C2.08387 19.1249 2.00752 18.1857 2.00085 15.9158L0.000858784 15.9216ZM21.9992 15.9158C21.9925 18.1857 21.9161 19.1249 21.564 19.8159L23.346 20.7239C23.9576 19.5237 23.9929 18.0549 23.9992 15.9216L21.9992 15.9158ZM23.9989 7.99643C23.9915 5.90991 23.9508 4.46295 23.346 3.27604L21.564 4.18402C21.911 4.86496 21.991 5.78992 21.9989 8.00355L23.9989 7.99643ZM8.00357 21.9989C5.78994 21.991 4.86498 21.911 4.18404 21.564L3.27606 23.346C4.46297 23.9508 5.90993 23.9914 7.99645 23.9989L8.00357 21.9989ZM16.0037 23.9989C18.0901 23.9914 19.5371 23.9508 20.7239 23.346L19.816 21.564C19.1351 21.911 18.2101 21.991 15.9966 21.9989L16.0037 23.9989ZM2.00111 8.00355C2.00899 5.78992 2.08903 4.86496 2.43598 4.18403L0.653967 3.27604C0.0492081 4.46295 0.00855136 5.90992 0.00112444 7.99643L2.00111 8.00355ZM11 7.99999V12H13V7.99999H11ZM11 12C11 12.5523 10.5523 13 10 13V15C11.6569 15 13 13.6568 13 12H11ZM6.00001 6.99999V8.99999H8.00001V6.99999H6.00001ZM16 6.99999V8.99999H18V6.99999H16ZM12 18C10.2664 18 8.73661 17.3265 7.70852 16.2943L6.29149 17.7057C7.70655 19.1264 9.75133 20 12 20V18ZM16.2915 16.2943C15.2634 17.3265 13.7336 18 12 18V20C14.2487 20 16.2935 19.1264 17.7085 17.7057L16.2915 16.2943Z" fill="#111111"/>
</svg>
