<svg width="32" height="32" viewBox="0 0 32 32" fill="none" xmlns="http://www.w3.org/2000/svg">
<g id="dashboard 1" clip-path="url(#clip0_5_256)">
<g id="Group">
<g id="Group_2">
<g id="Group_3">
<path id="Vector" d="M12.9282 22.9362H1.87766C1.21666 22.9362 0.680847 23.472 0.680847 24.133V30.0372C0.680847 30.6982 1.21666 31.234 1.87766 31.234H12.9282C13.5892 31.234 14.125 30.6982 14.125 30.0372V24.133C14.125 23.472 13.5892 22.9362 12.9282 22.9362ZM11.7314 28.8404H3.07446V25.3298H11.7314V28.8404Z" fill="#E31E24"/>
<path id="Vector_2" d="M12.9282 0.595734H1.87766C1.21666 0.595734 0.680847 1.13154 0.680847 1.79254V17.9893C0.680847 18.6503 1.21666 19.1862 1.87766 19.1862H12.9282C13.5892 19.1862 14.125 18.6503 14.125 17.9893V1.79254C14.125 1.13154 13.5892 0.595734 12.9282 0.595734ZM11.7314 16.7925H3.07446V2.98935H11.7314V16.7925Z" fill="#E31E24"/>
<path id="Vector_3" d="M30.1223 0.595734H19.0718C18.4108 0.595734 17.875 1.13154 17.875 1.79254V7.6968C17.875 8.3578 18.4108 8.89361 19.0718 8.89361H30.1223C30.7833 8.89361 31.3191 8.3578 31.3191 7.6968V1.79254C31.3191 1.13154 30.7833 0.595734 30.1223 0.595734ZM28.9255 6.49999H20.2686V2.98935H28.9255V6.49999Z" fill="#E31E24"/>
<path id="Vector_4" d="M30.1223 12.6436H19.0718C18.4108 12.6436 17.875 13.1794 17.875 13.8404V30.0372C17.875 30.6982 18.4108 31.234 19.0718 31.234H30.1223C30.7833 31.234 31.3191 30.6982 31.3191 30.0372V13.8404C31.3191 13.1794 30.7833 12.6436 30.1223 12.6436ZM28.9255 28.8404H20.2686V15.0372H28.9255V28.8404Z" fill="#E31E24"/>
</g>
</g>
</g>
</g>
<defs>
<clipPath id="clip0_5_256">
<rect width="30.6383" height="30.6383" fill="white" transform="translate(0.680847 0.595734)"/>
</clipPath>
</defs>
</svg>
