<svg style="display: block" width="245" height="244" viewBox="0 0 245 244" fill="none" xmlns="http://www.w3.org/2000/svg">
    <g filter="url(#filter0_d_5_107)">
        <path fill-rule="evenodd" clip-rule="evenodd" d="M75.7243 104.5V17.3208C60.3363 30.5202 50.5873 50.1066 50.5873 71.97C50.5873 111.718 82.8093 143.94 122.557 143.94C124.042 143.94 125.516 143.895 126.978 143.806L123.608 134.843L94.7243 58.0256V104.5H75.7243ZM95.225 5.37155L132.276 103.911L153.055 45.8014L155.308 39.5H162L186.804 39.5C174.936 16.0646 150.623 0 122.557 0C112.882 0 103.652 1.90925 95.225 5.37155ZM193.269 58.5H168.692L141.445 134.699L138.799 142.1C170.725 134.736 194.527 106.133 194.527 71.97C194.527 67.3662 194.095 62.8635 193.269 58.5Z" fill="white"/>
    </g>
    <defs>
        <filter id="filter0_d_5_107" x="0.58728" y="0" width="243.94" height="243.94" filterUnits="userSpaceOnUse" color-interpolation-filters="sRGB">
            <feFlood flood-opacity="0" result="BackgroundImageFix"/>
            <feColorMatrix in="SourceAlpha" type="matrix" values="0 0 0 0 0 0 0 0 0 0 0 0 0 0 0 0 0 0 127 0" result="hardAlpha"/>
            <feOffset dy="50"/>
            <feGaussianBlur stdDeviation="25"/>
            <feComposite in2="hardAlpha" operator="out"/>
            <feColorMatrix type="matrix" values="0 0 0 0 0 0 0 0 0 0 0 0 0 0 0 0 0 0 0.25 0"/>
            <feBlend mode="normal" in2="BackgroundImageFix" result="effect1_dropShadow_5_107"/>
            <feBlend mode="normal" in="SourceGraphic" in2="effect1_dropShadow_5_107" result="shape"/>
        </filter>
    </defs>
</svg>

