<svg width="115" height="43" viewBox="0 0 115 43" fill="none" xmlns="http://www.w3.org/2000/svg">
    <path d="M5.10536 28.1182L5.10535 41.0158C5.10535 41.33 5.18801 41.4125 5.35332 41.4911C5.53366 41.5696 5.81168 41.6089 6.18737 41.6089L6.56118 41.6451V42.6693C5.41906 42.5907 4.00491 42.6693 3.43385 42.6693C2.80267 42.6693 1.98692 42.6693 0.837284 42.6693L0.837275 41.6451H0.995069C1.2806 41.6451 1.48348 41.6352 1.6037 41.6156C1.73895 41.596 1.86669 41.5174 1.98691 41.3799C2.10714 41.2425 2.42371 40.96 2.42371 40.6851V31.6824C2.42371 31.4271 2.39366 31.2503 2.33355 31.1522C2.27343 31.0343 2.12316 30.9361 1.88271 30.8576C1.79254 30.8183 1.65729 30.7692 1.47695 30.7103C1.31165 30.6318 1.18391 30.5827 1.09374 30.563V29.8561C1.51452 29.7186 2.35524 29.1688 3.30201 28.7368C3.49737 28.6386 3.77539 28.4815 4.13606 28.2655C4.49673 28.0495 4.73718 27.912 4.8574 27.8531L5.10536 28.1182Z" fill="white"/>
    <path d="M6.56118 42.6693L6.56117 41.6156H6.83167C7.07212 41.6156 7.25245 41.6058 7.37268 41.5861C7.4929 41.5665 7.77853 41.5893 7.88373 41.4911C7.98892 41.3733 8.11406 41.2514 8.11406 41.0158V34.7324C8.11406 34.5163 8.11406 33.4095 8.11406 33.4095C8.06898 33.331 8.06396 33.1574 7.8686 33.0788C7.82352 33.0592 7.75589 33.0395 7.66572 33.0199C7.57555 32.9806 7.50793 32.9512 7.46284 32.9315C7.26748 32.8334 7.1172 32.7744 7.01201 32.7548V31.8417C7.61312 31.6453 7.80849 31.349 8.49977 30.9955V31.025C8.5148 31.0053 8.55989 30.9759 8.63503 30.9366C8.71017 30.8973 8.75525 30.8777 8.77028 30.8777C8.87547 30.8188 9.01073 30.7402 9.17603 30.642C9.34134 30.5439 9.47659 30.4751 9.58179 30.4359C9.9124 30.2198 10.1303 30.0824 10.2355 30.0235L10.5736 30.4064V32.0854C10.6638 32.0265 10.1604 32.537 10.2355 32.4388C10.6713 32.0461 10.9944 31.7614 11.2048 31.5846C11.4302 31.3882 11.7458 31.1919 12.1516 30.9955C12.5723 30.7795 12.9706 30.6715 13.3463 30.6715C15.2548 30.6715 16.4716 31.3784 16.4716 33.9705C16.4716 33.9705 16.4716 40.7221 16.4716 40.9381C16.4716 41.1541 16.8478 41.3112 16.953 41.4094C17.0732 41.5076 17.1859 41.5665 17.2911 41.5861C17.3963 41.6058 17.5616 41.6156 17.7871 41.6156H18.1477V42.7644C17.0357 42.6858 16.164 42.6465 15.5329 42.6465C14.8716 42.6465 13.9549 42.6858 12.7827 42.7644V41.6156H13.1209C13.7671 41.6156 14.0902 41.4094 14.0902 40.997V33.7215C14.0902 32.7334 13.1209 32.2916 12.5122 32.4977C11.9712 32.4977 11.325 32.8119 10.5736 33.4403V41.0559C10.5736 41.3112 10.6488 41.4683 10.7991 41.5272C10.9644 41.5861 11.2123 41.6156 11.5429 41.6156H11.9712V42.6693C10.8592 42.5908 9.98003 42.6465 9.33383 42.6465C8.62751 42.6465 7.71082 42.6465 6.56118 42.6693Z" fill="white"/>
    <path d="M17.7645 42.6693V41.6156H18.035C18.2754 41.6156 18.4558 41.6058 18.576 41.5861C18.6962 41.5665 18.9819 41.5893 19.0871 41.4911C19.1923 41.3733 19.3174 41.2514 19.3174 41.0158V34.7324C19.3174 34.5163 19.3174 33.4095 19.3174 33.4095C19.2723 33.331 19.2673 33.1574 19.0719 33.0788C19.0269 33.0592 18.9592 33.0395 18.8691 33.0199C18.7789 32.9806 18.7113 32.9512 18.6662 32.9315C18.4708 32.8334 18.3205 32.7744 18.2153 32.7548V31.8417C18.8165 31.6453 19.0118 31.349 19.7031 30.9955V31.025C19.7181 31.0053 19.7632 30.9759 19.8384 30.9366C19.9135 30.8973 19.9586 30.8777 19.9736 30.8777C20.0788 30.8188 20.2141 30.7402 20.3794 30.642C20.5447 30.5439 20.6799 30.4751 20.7851 30.4358C21.1157 30.2198 21.3336 30.0824 21.4388 30.0235L21.777 30.4064V32.0854C21.8671 32.0265 21.3637 32.537 21.4388 32.4388C21.8747 32.0461 22.1978 31.7614 22.4082 31.5846C22.6336 31.3882 22.9492 31.1919 23.3549 30.9955C23.7757 30.7795 24.1739 30.6715 24.5496 30.6715C26.4582 30.6715 27.675 31.3784 27.675 33.9705C27.675 33.9705 27.675 40.7221 27.675 40.9381C27.675 41.1541 28.0511 41.3112 28.1563 41.4094C28.2766 41.5076 28.3893 41.5665 28.4945 41.5861C28.5997 41.6058 28.765 41.6156 28.9904 41.6156H29.3511V42.7644C28.239 42.6858 27.3674 42.6465 26.7362 42.6465C26.075 42.6465 25.1583 42.6858 23.9861 42.7644V41.6156H24.3242C24.9704 41.6156 25.2935 41.4094 25.2935 40.997V33.7215C25.2935 32.7334 24.3242 32.2916 23.7156 32.4977C23.1746 32.4977 22.5284 32.8119 21.777 33.4403V41.0559C21.777 41.3112 21.8521 41.4683 22.0024 41.5272C22.1677 41.5861 22.4157 41.6156 22.7463 41.6156H23.1746V42.6693C22.0625 42.5908 21.1834 42.6465 20.5372 42.6465C19.8308 42.6465 18.9141 42.6465 17.7645 42.6693Z" fill="white"/>
    <path fill-rule="evenodd" clip-rule="evenodd" d="M33.8554 30.642C35.3879 30.642 38.5356 31.6164 38.5356 36.3859C38.5356 42.3386 34.524 42.8822 33.8554 42.7644C33.7849 42.7519 33.6752 42.7484 33.5354 42.744C32.3486 42.706 28.9904 42.5986 28.9904 36.3859C28.9904 31.5846 32.1839 30.642 33.8554 30.642ZM35.8612 36.3859C35.8612 32.6498 34.3011 31.7426 33.5211 31.756C32.5182 31.756 31.5152 33.4403 31.5152 36.3859C31.5152 39.3314 32.8525 41.6772 33.8554 41.6772C34.8583 41.6772 35.8612 41.0559 35.8612 36.3859Z" fill="white"/>
    <path fill-rule="evenodd" clip-rule="evenodd" d="M96.0356 30.4064C97.5682 30.4064 100.716 31.3807 100.716 36.1502C100.716 42.103 96.7042 42.6465 96.0356 42.5287C95.9651 42.5163 95.8554 42.5128 95.7156 42.5083C94.5289 42.4704 91.1706 42.363 91.1706 36.1502C91.1706 31.349 94.3641 30.4064 96.0356 30.4064ZM98.0414 36.1502C98.0414 32.4142 96.4813 31.507 95.7013 31.5204C94.6984 31.5204 93.6954 33.2047 93.6954 36.1502C93.6954 39.0958 95.0327 41.4415 96.0356 41.4415C97.0385 41.4415 98.0414 40.8203 98.0414 36.1502Z" fill="white"/>
    <path d="M100.83 42.2954V41.2417H101.1C101.341 41.2417 101.521 41.2319 101.641 41.2123C101.762 41.1926 102.047 41.2154 102.152 41.1172C102.258 40.9994 102.383 40.8775 102.383 40.6419V34.3585C102.383 34.1425 102.383 33.0357 102.383 33.0357C102.338 32.9571 102.333 32.7835 102.137 32.7049C102.092 32.6853 102.025 32.6657 101.934 32.646C101.844 32.6068 101.777 32.5773 101.732 32.5577C101.536 32.4595 101.386 32.4006 101.281 32.3809V31.4678C101.882 31.2714 102.077 30.9751 102.768 30.6216V30.6511C102.783 30.6315 102.829 30.602 102.904 30.5627C102.979 30.5235 103.024 30.5038 103.039 30.5038C103.144 30.4449 103.279 30.3664 103.445 30.2682C103.61 30.17 103.745 30.1013 103.85 30.062C104.181 29.846 104.399 29.7085 104.504 29.6496L104.842 30.0325V31.7115C104.932 31.6526 104.429 32.1631 104.504 32.065C104.94 31.6722 105.263 31.3875 105.473 31.2107C105.699 31.0144 106.014 30.818 106.42 30.6216C106.841 30.4056 107.239 30.2976 107.615 30.2976C109.524 30.2976 110.74 31.0046 110.74 33.5967C110.74 33.5967 110.74 40.3482 110.74 40.5642C110.74 40.7803 111.116 40.9374 111.222 41.0355C111.342 41.1337 111.455 41.1926 111.56 41.2123C111.665 41.2319 111.83 41.2417 112.056 41.2417H112.416V42.3905C111.304 42.3119 110.433 42.2727 109.802 42.2727C109.14 42.2727 108.224 42.3119 107.051 42.3905V41.2417H107.39C108.036 41.2417 108.359 41.0355 108.359 40.6232V33.3476C108.359 32.3595 107.39 31.9177 106.781 32.1239C106.24 32.1239 105.594 32.4381 104.842 33.0665V40.6821C104.842 40.9374 104.917 41.0944 105.068 41.1534C105.233 41.2123 105.481 41.2417 105.812 41.2417H106.24V42.2954C105.128 42.2169 104.249 42.2727 103.602 42.2727C102.896 42.2727 101.979 42.2727 100.83 42.2954Z" fill="white"/>
    <path d="M42.2129 42.6693L37.9619 30.8209C37.8174 30.322 37.6729 30.0127 37.5284 29.8929C37.4 29.7732 37.1511 29.7133 36.7819 29.7133H36.3526V28.5687H39.2991H42.2129V29.7133H41.3573C41.0362 29.7133 40.8757 29.843 40.8757 30.1025C40.8757 30.2222 40.964 30.5814 41.0811 30.8138L43.2158 37.0473L43.5615 37.8199C43.6096 37.6004 43.8844 36.7166 44.553 34.4016C45.2216 32.0867 45.2216 32.0867 45.5559 31.0946C49.2332 18.197 48.2303 14.5593 46.2245 5.9609C51.9077 11.2522 50.2361 21.1734 48.8989 25.8033C48.2303 27.7875 47.8403 29.3977 47.2274 31.0946L43.5189 41.5418C43.4066 41.881 43.2862 42.2402 43.1577 42.6194L42.2129 42.6693Z" fill="white"/>
    <path d="M11.4571 6.62231C30.5123 0.00818695 41.3573 1.99242 46.2245 5.9609C45.5559 3.64596 40.7224 -0.200903 35.8611 0.00818213C28.1722 0.338891 17.8088 2.65384 11.4571 6.62231Z" fill="white"/>
    <path d="M11.4571 6.62231C6.10824 7.94514 -3.18536 13.7656 1.09371 23.819C1.42801 24.7009 2.43092 26.4647 3.76813 26.4647C5.43964 26.4647 5.43964 25.1419 5.43964 24.8112C5.43964 24.4805 5.43964 22.8269 3.76813 22.8269C3.32239 22.9372 2.43092 23.2238 2.43092 23.4883C2.43092 23.819 -0.577805 13.2364 11.4571 6.62231Z" fill="white"/>
    <path d="M51.7562 35.7881V34.3142C51.7562 33.5947 51.7248 33.1702 51.5734 32.7481C51.2566 32.3972 51.0774 32.1822 50.5344 32.1822C49.8858 32.1822 49.4408 32.3138 49.1995 32.577C48.9732 32.8227 48.8375 33.314 48.7922 34.051C48.7771 34.3668 48.566 34.6213 48.1587 34.8143C47.7665 35.0073 47.4422 35.1038 47.1858 35.1038C46.8992 35.1038 46.7559 34.902 46.7559 34.4984C46.7559 33.5158 47.5243 32.649 48.1587 31.9271C48.7209 31.2873 49.0864 31.087 49.0864 31.087C49.0864 31.087 49.9019 30.4332 50.9048 30.4332C51.9003 30.4332 52.732 30.8287 53.2449 31.4253C53.7728 32.0219 53.9135 32.5997 53.9135 33.7402V39.3622C53.9135 40.029 53.9135 40.6851 54.1546 40.9207C54.4842 41.2102 54.7051 41.2102 54.9916 41.2102C55.2179 41.2102 55.4291 41.0961 55.6252 40.868L55.9193 41.3418C55.5127 41.8795 55.1576 42.3244 54.8106 42.6052C54.4637 42.8684 54.0414 43 53.5436 43C53.0157 43 52.6084 42.8158 52.3218 42.4473C52.0352 42.0612 51.8693 41.5524 51.8241 40.9207C51.2358 41.5875 51.2433 42.1051 50.7154 42.4736C50.1875 42.8245 49.5917 43 48.928 43C48.219 43 47.6308 42.7631 47.1632 42.2893C46.6956 41.798 46.4618 41.1312 46.4618 40.289C46.4618 39.7977 46.5372 39.3765 46.688 39.0256C46.8389 38.6571 47.0802 38.3412 47.4121 38.078C47.759 37.8148 48.0607 37.613 48.3171 37.4727C48.5886 37.3323 48.9883 37.148 49.5162 36.9199L51.7562 35.7881ZM51.7562 39.8152V36.683C51.6808 36.7181 52.0579 36.7883 51.7562 36.8936C51.4696 36.9989 51.2509 37.0779 51.1 37.1305C50.9643 37.1831 50.7607 37.2709 50.4891 37.3937C50.2327 37.5165 50.0366 37.6394 49.9009 37.7622C49.7651 37.885 49.6143 38.0342 49.4484 38.2096C49.2824 38.3851 49.1618 38.5869 49.0864 38.815C49.026 39.0256 48.9959 39.2537 48.9959 39.4994C48.9959 40.6399 49.4559 41.2102 50.376 41.2102C51.085 41.2102 51.1679 40.7452 51.7562 39.8152Z" fill="white"/>
    <path d="M56.4887 40.6838L56.4208 24.8719C56.4208 24.5736 56.3831 24.3542 56.3077 24.2139C56.2323 24.0559 56.0739 23.9243 55.8325 23.819C55.7571 23.7839 55.6364 23.7313 55.4705 23.6611C55.3046 23.5734 55.1764 23.512 55.0859 23.4769V22.8452C56.1719 22.5469 57.3786 22.0292 58.706 21.2923L58.9549 21.5291L59.0227 40.6838C59.0227 41.0347 59.1208 41.2628 59.3169 41.3681C59.513 41.4559 59.8071 41.4997 60.1993 41.4997H60.4482V42.2894C59.3018 42.2192 58.4345 42.1841 57.8462 42.1841C57.1674 42.1841 56.27 42.2192 55.1538 42.2894L55.541 41.83C55.541 41.83 55.6252 41.7242 55.8006 41.4979C55.9515 41.4803 56.1267 41.3857 56.2624 41.2628C56.4132 41.14 56.4887 40.947 56.4887 40.6838Z" fill="white"/>
    <path d="M61.137 39.9205V32.7876C61.137 32.577 61.1068 32.4279 61.0465 32.3401C60.9862 32.2524 60.858 32.1734 60.6619 32.1033L59.7116 31.7874V31.1557C61.1898 31.068 62.4719 30.8135 63.5579 30.3924L63.7842 30.5503C63.7088 31.7786 63.6711 32.5682 63.6711 32.9192V38.7361C63.6711 40.1749 64.2292 40.8943 65.3454 40.8943C65.994 40.8943 66.7029 40.5259 67.4722 39.7889V33.0508C67.4722 32.7876 67.4345 32.6033 67.359 32.4981C67.2987 32.3928 67.1554 32.2963 66.9292 32.2085L65.7979 31.7874V31.1557C67.7286 31.0153 69.0937 30.7609 69.8931 30.3924L70.1194 30.5503C70.0439 31.1645 70.0062 31.9541 70.0062 32.9192V40.4469C70.0062 40.7978 70.0439 41.0435 70.1194 41.1839C70.2099 41.3243 70.3758 41.3944 70.6171 41.3944H70.9962L70.6171 41.9997C68.8222 42.3682 68.3018 42.7192 67.6984 43L67.4722 42.7894V40.9207C66.0543 42.3069 64.8627 43 63.8973 43C62.0571 43 61.137 41.9735 61.137 39.9205Z" fill="white"/>
    <path d="M85.9438 30.7872V32.2612H83.2514V39.473C83.2514 40.4206 83.6511 40.8943 84.4506 40.8943C84.9031 40.8943 85.348 40.7364 85.7855 40.4206L86.0796 40.868C85.1444 42.2893 84.1187 43 83.0025 43C82.2031 43 81.6224 42.7543 81.2603 42.263C80.8983 41.7542 80.7173 41.0961 80.7173 40.289V32.2612H79.3598V31.6295C80.5967 30.8574 81.8034 29.6028 82.9799 27.8656L83.2514 28.0236V30.7872H85.9438Z" fill="white"/>
    <path d="M90.323 30.2871V40.8417C90.323 41.1225 90.406 41.2979 90.5719 41.3681C90.7529 41.4383 91.032 41.4734 91.4091 41.4734H91.7484V42.263C90.6021 42.1928 89.7423 42.1577 89.1692 42.1577C88.5356 42.1577 87.6306 42.1928 86.4541 42.263V41.4734H86.6124C86.899 41.4734 87.1027 41.4646 87.2233 41.4471C87.3591 41.4295 87.4873 41.3593 87.608 41.2365C87.7287 41.1137 87.789 40.9294 87.789 40.6838V33.235C87.789 33.0069 87.7588 32.849 87.6985 32.7613C87.6381 32.656 87.4873 32.5682 87.246 32.4981C87.1555 32.463 87.0197 32.4191 86.8387 32.3665C86.6728 32.2963 86.5446 32.2524 86.4541 32.2349V31.6032C86.8764 31.4803 87.5627 31.2259 88.513 30.8399C88.7091 30.7521 88.9882 30.6117 89.3502 30.4187C89.7122 30.2257 89.9535 30.1029 90.0742 30.0502L90.323 30.2871ZM90.0289 23.628C90.3004 23.9438 90.4362 24.3211 90.4362 24.7598C90.4362 25.1985 90.3004 25.5757 90.0289 25.8916C89.7574 26.2074 89.4331 26.3653 89.056 26.3653C88.6789 26.3653 88.3546 26.2074 88.0831 25.8916C87.8116 25.5757 87.6759 25.1985 87.6759 24.7598C87.6759 24.3211 87.8116 23.9438 88.0831 23.628C88.3546 23.3122 88.6789 23.1542 89.056 23.1542C89.4331 23.1542 89.7574 23.3122 90.0289 23.628Z" fill="white"/>
    <path d="M76.1243 35.7881V34.3142C76.1243 33.5947 76.093 33.1702 75.9415 32.7481C75.6247 32.3972 75.4456 32.1822 74.9025 32.1822C74.2539 32.1822 73.809 32.3138 73.5676 32.577C73.3414 32.8227 73.2056 33.314 73.1604 34.051C73.1453 34.3668 72.9341 34.6213 72.5268 34.8143C72.1347 35.0073 71.8104 35.1038 71.554 35.1038C71.2674 35.1038 71.1241 34.902 71.1241 34.4984C71.1241 33.5158 71.8925 32.649 72.5268 31.9271C73.0891 31.2873 73.4545 31.087 73.4545 31.087C73.4545 31.087 74.27 30.4332 75.2729 30.4332C76.2684 30.4332 77.1002 30.8287 77.613 31.4253C78.141 32.0219 78.2816 32.5997 78.2816 33.7402V39.3622C78.2816 40.029 78.2816 40.6851 78.5227 40.9207C78.8523 41.2102 79.0732 41.2102 79.3598 41.2102C79.586 41.2102 79.7972 41.0961 79.9933 40.868L80.2874 41.3418C79.8953 41.9033 79.5257 42.3244 79.1788 42.6052C78.8319 42.8684 78.4095 43 77.9118 43C77.3838 43 76.9766 42.8158 76.69 42.4473C76.4034 42.0612 76.2375 41.5524 76.1922 40.9207C75.6039 41.5875 75.6115 42.1051 75.0835 42.4736C74.5556 42.8245 73.9598 43 73.2961 43C72.5872 43 71.9989 42.7631 71.5313 42.2893C71.0637 41.798 70.8299 41.1312 70.8299 40.289C70.8299 39.7977 70.9053 39.3765 71.0562 39.0256C71.207 38.6571 71.4484 38.3412 71.7802 38.078C72.1271 37.8148 72.4288 37.613 72.6852 37.4727C72.9567 37.3323 73.3565 37.148 73.8844 36.9199L76.1243 35.7881ZM76.1243 39.8152V36.683C76.0489 36.7181 76.426 36.7883 76.1243 36.8936C75.8377 36.9989 75.619 37.0779 75.4682 37.1305C75.3324 37.1831 75.1288 37.2709 74.8573 37.3937C74.6009 37.5165 74.4048 37.6394 74.269 37.7622C74.1333 37.885 73.9824 38.0342 73.8165 38.2096C73.6506 38.3851 73.5299 38.5869 73.4545 38.815C73.3942 39.0256 73.364 39.2537 73.364 39.4994C73.364 40.6399 73.8241 41.2102 74.7442 41.2102C75.4531 41.2102 75.5361 40.7452 76.1243 39.8152Z" fill="white"/>
    <path d="M109.651 27.4486V27.1179H111.991H112.326L113.328 28.7715H113.663L114.666 27.1179H115V29.4329H114.666V27.7793L113.663 29.4329H113.328L112.326 27.7793V29.4329H111.991V27.4486H110.988V29.4329H110.654V27.4486H109.651Z" fill="white"/>
</svg>
