<svg width="206" height="205" viewBox="0 0 206 205" fill="none" xmlns="http://www.w3.org/2000/svg">
<g filter="url(#filter0_d_5_107)">
<path fill-rule="evenodd" clip-rule="evenodd" d="M55.9689 115.226V27.3845C40.4359 40.6762 30.5914 60.4233 30.5914 82.4698C30.5914 122.494 63.0372 154.94 103.061 154.94C104.579 154.94 106.086 154.893 107.581 154.801L104.181 145.757L74.9689 68.0656V115.226H55.9689ZM75.4781 15.434L112.849 114.824L133.832 56.1417L136.086 49.8403L142.778 49.8403H167.787C155.849 26.2063 131.348 10 103.061 10C93.2952 10 83.9804 11.9317 75.4781 15.434ZM174.251 68.8403H149.47L122.018 145.612L119.339 153.104C151.525 145.717 175.531 116.897 175.531 82.4698C175.531 77.8109 175.091 73.2546 174.251 68.8403Z" fill="white"/>
</g>
<defs>
<filter id="filter0_d_5_107" x="0" y="0" width="206.007" height="205" filterUnits="userSpaceOnUse" color-interpolation-filters="sRGB">
<feFlood flood-opacity="0" result="BackgroundImageFix"/>
<feColorMatrix in="SourceAlpha" type="matrix" values="0 0 0 0 0 0 0 0 0 0 0 0 0 0 0 0 0 0 127 0" result="hardAlpha"/>
<feOffset dy="20"/>
<feGaussianBlur stdDeviation="15"/>
<feComposite in2="hardAlpha" operator="out"/>
<feColorMatrix type="matrix" values="0 0 0 0 0 0 0 0 0 0 0 0 0 0 0 0 0 0 0.15 0"/>
<feBlend mode="normal" in2="BackgroundImageFix" result="effect1_dropShadow_5_107"/>
<feBlend mode="normal" in="SourceGraphic" in2="effect1_dropShadow_5_107" result="shape"/>
</filter>
</defs>
</svg>
