<svg width="26" height="28" viewBox="0 0 26 28" fill="none" xmlns="http://www.w3.org/2000/svg">
    <path d="M18.8039 13.8513C19.4978 12.9273 19.9034 11.816 19.9034 10.6207V8.68965C19.9034 5.49475 17.0083 2.89655 13.4483 2.89655C9.88821 2.89655 6.99306 5.49475 6.99306 8.68965V10.6207C6.99306 11.8161 7.39868 12.9273 8.09262 13.8513C4.86931 15.5197 2.68964 18.6344 2.68964 22.2069V23.1724C2.68964 24.7693 4.13777 26.069 5.91722 26.069H20.9793C22.7588 26.069 24.2069 24.7693 24.2069 23.1724V22.2069C24.2068 18.6344 22.0272 15.5197 18.8039 13.8513ZM9.1448 8.68965C9.1448 6.55973 11.0749 4.82759 13.4483 4.82759C15.8216 4.82759 17.7517 6.55973 17.7517 8.68965V10.6207C17.7517 12.7506 15.8216 14.4828 13.4483 14.4828C11.0749 14.4828 9.1448 12.7506 9.1448 10.6207V8.68965ZM22.0552 23.1724C22.0552 23.7044 21.5721 24.1379 20.9793 24.1379H5.91722C5.3244 24.1379 4.84138 23.7044 4.84138 23.1724V22.2069C4.84138 19.1761 6.79729 16.549 9.63539 15.2851C10.7059 15.9909 12.0216 16.4138 13.4483 16.4138C14.8748 16.4138 16.1906 15.9909 17.2611 15.2851C20.0991 16.5489 22.0551 19.1761 22.0551 22.2069L22.0552 23.1724Z" fill="#919191"/>
</svg>
