<svg width="37" height="40" viewBox="0 0 37 40" fill="none" xmlns="http://www.w3.org/2000/svg">
<path d="M26.7594 19.7876C27.7469 18.4677 28.3241 16.88 28.3241 15.1724V12.4138C28.3241 7.84966 24.2041 4.13794 19.1379 4.13794C14.0717 4.13794 9.95169 7.84966 9.95169 12.4138V15.1724C9.95169 16.8801 10.5289 18.4677 11.5164 19.7876C6.92942 22.171 3.82758 26.6207 3.82758 31.7242V33.1035C3.82758 35.3848 5.88838 37.2414 8.42068 37.2414H29.8552C32.3875 37.2414 34.4483 35.3848 34.4483 33.1035V31.7242C34.4481 26.6207 31.3464 22.171 26.7594 19.7876ZM13.0138 12.4138C13.0138 9.37106 15.7604 6.89658 19.1379 6.89658C22.5154 6.89658 25.2621 9.37106 25.2621 12.4138V15.1724C25.2621 18.2152 22.5154 20.6897 19.1379 20.6897C15.7604 20.6897 13.0138 18.2152 13.0138 15.1724V12.4138ZM31.3862 33.1035C31.3862 33.8634 30.6988 34.4827 29.8552 34.4827H8.42068C7.57705 34.4827 6.88967 33.8634 6.88967 33.1035V31.7242C6.88967 27.3945 9.67308 23.6415 13.7119 21.8358C15.2353 22.8442 17.1077 23.4483 19.1379 23.4483C21.1681 23.4483 23.0405 22.8442 24.5639 21.8358C28.6026 23.6413 31.3861 27.3945 31.3861 31.7242L31.3862 33.1035Z" fill="#919191"/>
</svg>
